<?xml version="1.0" encoding="UTF-8"?>
<svg version="1.1" xmlns="http://www.w3.org/2000/svg" width="2889" height="705">
<path d="M0 0 C4.0355617 1.34518723 4.43585483 3.12572816 6.4375 6.8125 C8.62570743 10.8315566 10.73978452 13.81143761 14 17 C14 17.66 14 18.32 14 19 C14.60328125 19.27585937 15.2065625 19.55171875 15.828125 19.8359375 C18 21 18 21 20.75 23.625 C24.4089882 26.84238618 28.42128534 28.95861136 32.75 31.125 C33.39291992 31.44936035 34.03583984 31.7737207 34.69824219 32.10791016 C44.12575863 36.70504893 53.55619659 39.6693499 63.92919922 41.21191406 C65.05146345 41.38027897 66.17372768 41.54864388 67.32999992 41.72211075 C80.24872566 43.51076241 93.11271987 43.60607066 106.1328125 43.609375 C108.42961739 43.62342772 110.72641229 43.6392191 113.02319336 43.65673828 C121.39035852 43.7087204 129.75770363 43.72749677 138.125 43.75 C166.278125 43.87375 166.278125 43.87375 195 44 C195 93.17 195 142.34 195 193 C58.05 193 -78.9 193 -220 193 C-218.71097462 187.19938581 -217.51186615 182.2203438 -215.53125 176.73828125 C-215.17711533 175.74883263 -215.17711533 175.74883263 -214.81582642 174.73939514 C-214.31073076 173.32887934 -213.80340672 171.91915977 -213.29400635 170.51019287 C-211.92028669 166.70793877 -210.5654827 162.89896305 -209.2109375 159.08984375 C-208.79870438 157.93159088 -208.79870438 157.93159088 -208.37814331 156.74993896 C-205.86178011 149.65672786 -203.4776616 142.52426452 -201.125 135.375 C-196.69293459 121.93968064 -192.03702601 108.58861531 -187.34155273 95.2434082 C-184.35163393 86.74124396 -181.38247438 78.23308384 -178.47265625 69.703125 C-178.19286926 68.88333664 -177.91308228 68.06354828 -177.62481689 67.21891785 C-176.293107 63.3138658 -174.96562864 59.40742676 -173.64306641 55.49926758 C-173.17226601 54.11537485 -172.7014038 52.73150316 -172.23046875 51.34765625 C-171.82207764 50.14117432 -171.41368652 48.93469238 -170.99291992 47.69165039 C-170 45 -170 45 -169 44 C-166.92388893 43.89703444 -164.84427883 43.86426455 -162.765625 43.8581543 C-162.11313278 43.85467987 -161.46064056 43.85120544 -160.78837585 43.84762573 C-159.36208964 43.84024776 -157.93579178 43.83491332 -156.50949097 43.83133507 C-154.22571767 43.82414227 -151.94215592 43.80844033 -149.65844727 43.78999329 C-143.16084283 43.73776116 -136.66333556 43.68989846 -130.16552734 43.67407227 C-82.85633381 43.54133405 -39.09635792 34.91925256 -2.875 2.3125 C-1.92625 1.549375 -0.9775 0.78625 0 0 Z " fill="#FFFFFF" transform="translate(356,405)"/>
<path d="M0 0 C1.6689062 0.00138269 1.6689062 0.00138269 3.37152767 0.00279331 C4.6434396 0.00141865 5.91535152 0.00004398 7.22580624 -0.00137234 C8.64839863 0.00216728 10.07099079 0.00580209 11.49358273 0.00952244 C12.98139602 0.0098043 14.46920945 0.00964659 15.95702267 0.00907993 C20.00849921 0.00879193 24.05994641 0.01468916 28.1114161 0.02165389 C32.34084918 0.02788691 36.57028285 0.02849119 40.79971981 0.0296793 C48.81432643 0.03279277 56.82891947 0.04100637 64.8435201 0.05102879 C73.96549605 0.06218944 83.08747263 0.06770025 92.2094537 0.07272422 C110.97921991 0.08318897 129.74897347 0.10078871 148.51872921 0.12304783 C147.93133461 5.18435616 146.81048692 9.78824546 145.14885616 14.6108408 C144.90755726 15.32715168 144.66625835 16.04346256 144.41764736 16.78147984 C143.61991556 19.14474441 142.81352428 21.50495487 142.00701046 23.86523533 C141.44086901 25.53653634 140.87526185 27.20801841 140.31015682 28.87967014 C138.80261881 33.3341264 137.28755985 37.78598991 135.77095699 42.23736668 C134.19945669 46.85403477 132.63489918 51.47305471 131.06951046 56.09179783 C127.80568259 65.71752337 124.5325014 75.340047 121.255126 84.96116734 C120.2285418 87.97496694 119.20255303 90.98896921 118.17644405 94.00293064 C115.68416975 101.3203807 113.18615371 108.63584031 110.68115902 115.94894505 C106.09805762 129.33048211 101.55994193 142.72724906 97.01872921 156.12304783 C90.06322134 176.63812369 83.08243885 197.14433579 76.07500362 217.64172459 C72.39714874 228.401469 68.73050127 239.16503617 65.06282711 249.92825413 C61.79090615 259.52988306 58.51763612 269.13103289 55.23357296 278.72851658 C47.9948954 299.88751869 40.80901681 321.06410501 33.64372921 342.24804783 C27.31958174 360.94452989 20.99497722 379.64082302 14.6378088 398.32611179 C13.99223102 400.22368318 13.34691172 402.12134254 12.70189571 404.01910496 C10.95702411 409.15205174 9.20440575 414.2822557 7.44512081 419.41027927 C6.41209238 422.43531431 5.39105336 425.46429905 4.36931515 428.49316502 C3.64598878 430.61729283 2.92236208 432.7413184 2.19841671 434.86523533 C1.86109524 435.87337284 1.52377377 436.88151035 1.17623043 437.92019749 C0.85854702 438.84678165 0.54086361 439.77336582 0.21355343 440.7280283 C-0.06578037 441.55350163 -0.34511417 442.37897495 -0.63291264 443.22946262 C-1.48127079 445.12304783 -1.48127079 445.12304783 -3.48127079 446.12304783 C-3.50413459 389.44970059 -3.5217677 332.77635382 -3.53233612 276.10300288 C-3.5335869 269.4198245 -3.53488006 262.73664612 -3.53620243 256.05346775 C-3.53633319 255.38839351 -3.53646395 254.72331927 -3.53659867 254.03809127 C-3.54086381 232.46177445 -3.54837794 210.88546024 -3.55756801 189.30914501 C-3.56725779 166.5183641 -3.57326441 143.72758434 -3.57535928 120.93680137 C-3.57673484 107.27569535 -3.58108719 93.61459683 -3.58918726 79.95349311 C-3.59445278 70.59932527 -3.59607553 61.24516133 -3.59477217 51.89099211 C-3.59412848 46.48542681 -3.59514972 41.07987464 -3.60047626 35.67431164 C-3.60530888 30.73423997 -3.60561035 25.79419039 -3.60216969 20.85411774 C-3.60174385 19.05868742 -3.60304074 17.26325577 -3.60615397 15.4678281 C-3.61011571 13.04379951 -3.60803559 10.61985267 -3.60431862 8.19582558 C-3.60694563 7.48451887 -3.60957265 6.77321216 -3.61227927 6.04035071 C-3.59169843 0.17811466 -3.59169843 0.17811466 0 0 Z " fill="#FFFFFF" transform="translate(73.4812707901001,115.87695217132568)"/>
<path d="M0 0 C5.54616478 4.63350475 9.19896221 10.33904281 12.875 16.5 C14.40017629 14.47708654 15.91129235 12.44913429 17.3828125 10.38671875 C25.84598967 -1.12238451 35.50038438 -6.38409759 49.5 -8.75 C66.97796691 -11.0243896 83.83956684 -7.96367377 98.04296875 2.9296875 C109.1799122 13.03742376 112.23512679 26.13667558 113.0548439 40.69379616 C113.11804067 43.97833305 113.12292786 47.2571658 113.10205078 50.54223633 C113.10234283 51.77308456 113.10263489 53.0039328 113.10293579 54.27207947 C113.1017927 57.60188287 113.09186015 60.93142889 113.07778788 64.26118684 C113.06516562 67.75783143 113.06410106 71.25448055 113.06173706 74.75114441 C113.0555557 81.35228005 113.03919086 87.95334834 113.01903808 94.55445451 C112.99436461 102.81819105 112.98351467 111.08193886 112.97265625 119.34570312 C112.95325666 134.06385436 112.91317935 148.78185892 112.875 163.5 C94.725 163.5 76.575 163.5 57.875 163.5 C57.83761719 155.12367188 57.80023437 146.74734375 57.76171875 138.1171875 C57.72759506 132.13789134 57.69160628 126.15862923 57.65292263 120.17936325 C57.60305553 112.43306979 57.55759442 104.68683228 57.52856445 96.94042969 C57.50310776 90.15168143 57.46218811 83.36316674 57.41181374 76.57455826 C57.39512148 73.98383497 57.38362194 71.39307287 57.37738609 68.80230331 C57.36777103 65.17509166 57.33974118 61.54845675 57.30737305 57.92138672 C57.30880814 56.84892197 57.31024323 55.77645721 57.3117218 54.67149353 C57.24273234 49.20927393 57.00080941 45.19356438 53.875 40.5 C49.55158432 36.58190454 45.29357815 36.09440242 39.6484375 36.15234375 C33.92201692 36.87016267 28.76970207 39.42766961 24.875 43.6875 C22.11084119 51.46169665 21.57448779 59.27029209 21.55615234 67.45751953 C21.54610672 68.50261185 21.5360611 69.54770416 21.52571106 70.62446594 C21.49507108 74.04390972 21.47789753 77.4632759 21.4609375 80.8828125 C21.44221041 83.26749327 21.42263587 85.65216753 21.4022522 88.03683472 C21.35108788 94.28711084 21.31137831 100.5374084 21.27410889 106.78778076 C21.22690278 114.301201 21.16537257 121.81451614 21.10626221 129.32785034 C21.01824155 140.7185241 20.94833974 152.10917966 20.875 163.5 C2.725 163.5 -15.425 163.5 -34.125 163.5 C-34.17398437 155.66378906 -34.22296875 147.82757813 -34.2734375 139.75390625 C-34.30883367 134.78188833 -34.34479937 129.80988755 -34.3828125 124.83789062 C-34.44306001 116.9506275 -34.50122813 109.06338829 -34.546875 101.17602539 C-34.58381916 94.81524064 -34.6302041 88.45458765 -34.68306351 82.09391594 C-34.70155893 79.67034154 -34.71668468 77.24673895 -34.72834396 74.82312202 C-34.74528937 71.42173978 -34.77434479 68.02065612 -34.80615234 64.61938477 C-34.80831253 63.62316101 -34.81047272 62.62693726 -34.81269836 61.6005249 C-34.90088522 54.19127806 -35.0973451 45.39449195 -40.125 39.5 C-45.65250495 36.22861952 -50.77976717 35.76432083 -57.125 36.5 C-62.85155155 38.1898021 -65.8359 40.51936285 -69.125 45.5 C-72.1573557 54.59706711 -72.26941621 64.30016866 -72.33032227 73.81494141 C-72.34022186 74.79175873 -72.35012146 75.76857605 -72.36032104 76.7749939 C-72.3916214 79.96715974 -72.41656751 83.15934041 -72.44140625 86.3515625 C-72.46200303 88.57929852 -72.48300017 90.80703087 -72.50437927 93.03475952 C-72.55931877 98.87075817 -72.60885096 104.70679042 -72.65722656 110.54284668 C-72.71652826 117.55981586 -72.78260005 124.57672423 -72.84752655 131.59364319 C-72.94518172 142.22905801 -73.03427988 152.86451358 -73.125 163.5 C-90.615 163.5 -108.105 163.5 -126.125 163.5 C-126.125 107.73 -126.125 51.96 -126.125 -5.5 C-108.965 -5.5 -91.805 -5.5 -74.125 -5.5 C-73.63 3.41 -73.63 3.41 -73.125 12.5 C-72.3 10.97375 -71.475 9.4475 -70.625 7.875 C-65.8514285 -0.03996165 -58.88789954 -4.70447376 -50.125 -7.5 C-33.03230826 -11.27928863 -14.54004683 -10.68338806 0 0 Z " fill="#FFFFFF" transform="translate(1276.125,284.5)"/>
<path d="M0 0 C2.05771065 -0.36914349 2.05771065 -0.36914349 4.64431763 -0.36076355 C5.62310883 -0.36488754 6.60190002 -0.36901154 7.61035156 -0.3732605 C9.22659424 -0.35708176 9.22659424 -0.35708176 10.87548828 -0.34057617 C12.00719452 -0.34101425 13.13890076 -0.34145233 14.30490112 -0.34190369 C18.06021139 -0.33980713 21.81507985 -0.31643473 25.5703125 -0.29296875 C28.16820024 -0.28737589 30.76609113 -0.28310433 33.36398315 -0.28010559 C39.51221268 -0.26980626 45.6602588 -0.24614197 51.80841911 -0.21605712 C58.80710061 -0.1825521 65.80578963 -0.16603695 72.80453134 -0.15097082 C87.20310668 -0.11959334 101.60154768 -0.06680854 116 0 C117 2 117 2 116.20239258 4.86865234 C115.77079834 6.09535645 115.3392041 7.32206055 114.89453125 8.5859375 C114.65957443 9.26149185 114.42461761 9.9370462 114.18254089 10.6330719 C113.66958848 12.10569801 113.15326566 13.57715333 112.6340332 15.0475769 C111.2263793 19.03549388 109.84394858 23.0321787 108.45703125 27.02734375 C108.0247673 28.2689904 108.0247673 28.2689904 107.58377075 29.53572083 C104.64829523 37.97845336 101.81552198 46.45415723 99 54.9375 C98.49747265 56.44891877 97.99486801 57.96031185 97.4921875 59.47167969 C95.7545184 64.69815132 94.01985544 69.92561908 92.28570557 75.15325928 C85.09420152 96.831103 77.81776405 118.47884414 70.43896484 140.09375 C69.71318467 142.22004134 68.98743587 144.34634339 68.26171875 146.47265625 C67.90400391 147.52059357 67.54628906 148.56853088 67.17773438 149.64822388 C65.10804378 155.72041726 63.05952617 161.79913973 61.03411865 167.88624573 C59.79877678 171.59692396 58.55499807 175.30474851 57.31048584 179.01235962 C56.74085047 180.71714372 56.17526947 182.42328946 55.61431885 184.13095093 C49.3026264 203.33632232 41.48368371 222.29564412 25 235 C24.09378906 235.71800781 23.18757813 236.43601562 22.25390625 237.17578125 C3.32528398 251.82146428 -13.48824589 257.18677132 -37.21875 257.09765625 C-38.68705192 257.09578817 -40.15535446 257.09436611 -41.62365723 257.09336853 C-45.46392578 257.08957409 -49.30415574 257.07977049 -53.14440918 257.06866455 C-57.07282998 257.05838392 -61.00125709 257.05385674 -64.9296875 257.04882812 C-72.61980915 257.03814508 -80.30989914 257.02110614 -88 257 C-73.9381687 214.59660254 -59.61894989 172.27655395 -45.14944458 130.01055908 C-39.89994757 114.67461049 -34.70283961 99.32106142 -29.50967407 83.9659729 C-28.0763101 79.72800523 -26.64214673 75.49030839 -25.20776367 71.25268555 C-24.97423785 70.56275607 -24.74071203 69.8728266 -24.50010967 69.16199017 C-23.56581509 66.40172516 -22.63150708 63.6414647 -21.69714165 60.88122368 C-18.93890918 52.73288719 -16.18365021 44.5835598 -13.43235779 36.43287659 C-12.03022615 32.28200858 -10.62456366 28.13234359 -9.21774292 23.98306274 C-8.5779151 22.09344101 -7.93964339 20.20329159 -7.30300903 18.31259155 C-6.44039009 15.7512866 -5.57246644 13.19184204 -4.703125 10.6328125 C-4.45523727 9.89236191 -4.20734955 9.15191132 -3.95195007 8.38902283 C-2.88529108 5.26605131 -1.84330141 2.76495211 0 0 Z " fill="#FFFFFF" transform="translate(300,116)"/>
<path d="M0 0 C0.98737656 0.00142502 1.97475311 0.00285004 2.99205017 0.00431824 C4.10983353 0.00124161 5.22761688 -0.00183502 6.37927246 -0.00500488 C8.19648048 0.00577339 8.19648048 0.00577339 10.05039978 0.01676941 C11.28817673 0.01722763 12.52595367 0.01768585 13.80123901 0.01815796 C17.093824 0.02195956 20.38621712 0.03497992 23.67875671 0.05162048 C27.03376 0.06507651 30.38872983 0.06189632 33.74375916 0.06169128 C36.2834747 0.06660648 38.82318868 0.07243481 41.36289978 0.07926941 C42.57639603 0.08038223 43.78989227 0.08149506 45.04016113 0.0826416 C46.71210793 0.09221138 46.71210793 0.09221138 48.41783142 0.10197449 C49.89770287 0.10769218 49.89770287 0.10769218 51.4074707 0.11352539 C53.64024353 0.24723816 53.64024353 0.24723816 54.64024353 1.24723816 C54.73667481 2.61816126 54.76396274 3.9940226 54.76329136 5.36833286 C54.76528241 6.26207318 54.76727346 7.15581349 54.76932484 8.07663685 C54.766412 9.06980677 54.76349916 10.0629767 54.76049805 11.08624268 C54.76177968 12.65560842 54.76177968 12.65560842 54.76308721 14.25667852 C54.76474514 17.7913905 54.75921555 21.32605588 54.75376892 24.86076355 C54.75348709 27.38304646 54.7536447 29.90532945 54.75421143 32.4276123 C54.75443975 37.87278914 54.75158827 43.31795076 54.74597359 48.76312447 C54.73786088 56.63601616 54.7352436 64.50890206 54.7339856 72.38179749 C54.73179471 85.15376081 54.72513365 97.92571775 54.71568298 110.69767761 C54.7065098 123.10750802 54.69942851 135.51733669 54.69517517 147.9271698 C54.69491245 148.69157794 54.69464972 149.45598609 54.69437904 150.24355812 C54.69307404 154.07820971 54.69181032 157.91286132 54.69056714 161.74751294 C54.6801934 193.58075935 54.66249998 225.41399777 54.64024353 257.24723816 C42.9826044 257.31698913 31.32501556 257.37017636 19.66720963 257.40267467 C14.25303484 257.41827838 8.83900366 257.43941923 3.4249115 257.47355652 C-1.80762885 257.50633967 -7.04003174 257.52413092 -12.27266693 257.53186989 C-14.26118887 257.53737954 -16.24970396 257.54813784 -18.23816681 257.56442833 C-33.54638705 257.68476414 -48.776167 257.30616567 -61.10975647 246.93473816 C-70.5170228 235.69828115 -74.8000678 225.76816407 -73.69325256 210.78825378 C-72.5030652 201.7198277 -69.02475212 192.95131462 -66.07569885 184.34068298 C-65.31261882 182.10940574 -64.55584314 179.87605937 -63.80018616 177.64225769 C-60.86681114 168.97647199 -57.90644799 160.32021349 -54.93006897 151.66911316 C-51.72207741 142.33959463 -48.58893399 132.98672072 -45.48475647 123.62223816 C-40.33690031 108.10917721 -35.08840929 92.6313971 -29.80506897 77.16398621 C-26.12821736 66.39641039 -22.47120691 55.62250484 -18.84613991 44.8373909 C-17.53725524 40.94520039 -16.22528373 37.05404894 -14.91340542 33.16286659 C-13.8444465 29.99108173 -12.77846524 26.81836068 -11.71617126 23.64433289 C-10.53234144 20.10781973 -9.34134241 16.57379627 -8.14881897 13.04020691 C-7.79434189 11.974832 -7.43986481 10.90945709 -7.074646 9.8117981 C-6.74543655 8.84069595 -6.41622711 7.86959381 -6.07704163 6.86906433 C-5.79220917 6.0204332 -5.50737671 5.17180206 -5.21391296 4.29745483 C-4.01024418 1.40831002 -3.16979194 0.3321078 0 0 Z " fill="#FFFFFF" transform="translate(496.35975646972656,115.75276184082031)"/>
<path d="M0 0 C0.70769531 0.51175781 1.41539063 1.02351563 2.14453125 1.55078125 C18.02826037 14.17630953 24.68976328 34.9508802 27.31689453 54.33862305 C30.60416301 83.70939663 28.67723807 118.71894807 9.625 142.8125 C-0.43689395 154.44291474 -12.86454061 162.99127712 -28.61645508 164.20092773 C-31.39334123 164.30274274 -34.15886531 164.32214134 -36.9375 164.3125 C-37.86240234 164.32861328 -38.78730469 164.34472656 -39.74023438 164.36132812 C-50.03047824 164.36853923 -58.35559885 162.02649344 -66 155 C-68.03652817 152.70237847 -69.63462454 150.73075093 -71 148 C-71.86046009 163.08075079 -72.28239175 178.14823873 -72.5625 193.25 C-72.706875 200.7575 -72.85125 208.265 -73 216 C-90.49 216 -107.98 216 -126 216 C-126 142.08 -126 68.16 -126 -8 C-109.17 -8 -92.34 -8 -75 -8 C-74.505 0.91 -74.505 0.91 -74 10 C-73.154375 8.47375 -72.30875 6.9475 -71.4375 5.375 C-66.08502718 -3.47909055 -59.26420378 -8.04099461 -49.3203125 -10.72265625 C-31.70325869 -14.32722959 -14.4458132 -10.6359284 0 0 Z M-67.52734375 37.8046875 C-74.3278113 47.94225451 -73.1673271 61.64579888 -73.13037109 73.30541992 C-73.1250353 75.29931039 -73.13083996 77.29322043 -73.13671875 79.28710938 C-74.05629041 99.92407951 -74.05629041 99.92407951 -65.75 117.875 C-60.58215934 122.5347057 -55.22535032 124.69825044 -48.265625 124.40234375 C-42.35096568 123.35198184 -38.26827017 119.79058477 -34.6875 115.125 C-28.1672779 104.38789513 -28.38992153 90.23378792 -28 78 C-27.95875 77.03578125 -27.9175 76.0715625 -27.875 75.078125 C-27.55264789 61.78110066 -28.36898038 44.76772117 -36.8125 33.9375 C-40.72679872 29.90518222 -44.88661265 28.26897657 -50.4375 27.5625 C-57.92200477 28.48164971 -62.82615044 32.00048073 -67.52734375 37.8046875 Z " fill="#FFFFFF" transform="translate(1548,287)"/>
<path d="M0 0 C19.81887515 -0.51701413 42.83607399 2.7547058 58.60546875 15.48828125 C63.79874882 20.43572558 67.76354138 25.5709553 70.68359375 32.12890625 C71.01016968 32.85682877 71.33674561 33.58475128 71.67321777 34.33473206 C76.07356703 46.50380834 74.9886025 61.06983228 75.01911926 73.80768013 C75.02753835 77.21148948 75.04815765 80.61504675 75.07165527 84.01878357 C75.12754446 92.46498203 75.16314121 100.91124213 75.19927979 109.35754395 C75.23071915 116.52165561 75.27005072 123.68564282 75.3195343 130.84965324 C75.33936081 134.17676971 75.34787041 137.50378519 75.35583496 140.83094788 C75.36882513 142.90105543 75.38234799 144.97115972 75.39648438 147.04125977 C75.39550247 147.94402145 75.39452057 148.84678314 75.39350891 149.77690125 C75.46896887 157.81239912 76.59498078 164.964309 77.68359375 173.12890625 C60.19359375 173.12890625 42.70359375 173.12890625 24.68359375 173.12890625 C23.40420667 168.01135794 22.31167369 163.292883 21.55859375 158.12890625 C21.39101562 156.99453125 21.2234375 155.86015625 21.05078125 154.69140625 C20.86902344 153.42296875 20.86902344 153.42296875 20.68359375 152.12890625 C20.27109375 152.76957031 19.85859375 153.41023437 19.43359375 154.0703125 C11.18573848 166.42368501 1.8157174 172.6524093 -12.79760742 175.73413086 C-30.49456369 178.50780327 -48.53008035 176.68676845 -63.31640625 166.12890625 C-64.26773437 165.46955078 -64.26773437 165.46955078 -65.23828125 164.796875 C-74.90018313 157.37944147 -79.63971044 145.86577694 -81.31640625 134.12890625 C-82.46059761 117.38410576 -78.19141787 103.21043677 -67.3984375 90.375 C-46.50779691 67.83819261 -8.68919639 67.06444135 19.68359375 65.12890625 C19.45388177 62.58393936 19.20060966 60.04500765 18.93359375 57.50390625 C18.87171875 56.79105469 18.80984375 56.07820313 18.74609375 55.34375 C18.19427574 50.33140307 16.92494025 47.15327466 13.68359375 43.12890625 C7.41043405 38.79743884 -0.16825355 38.58154166 -7.50390625 39.75390625 C-13.02016997 41.07018896 -17.30800592 43.1887089 -20.5625 47.953125 C-23.00232444 52.5021017 -24.12036443 57.13060049 -25.31640625 62.12890625 C-42.3782091 61.49128733 -59.33179846 59.8010965 -76.31640625 58.12890625 C-75.07105401 42.98533726 -69.17681587 28.83102472 -58.04296875 18.29296875 C-41.7104616 5.32991866 -20.30627091 1.13002857 0 0 Z M-19.31640625 109.12890625 C-23.70848958 114.50920833 -23.93158216 119.22818571 -23.703125 126.09765625 C-23.02179638 131.43817152 -20.61955813 133.95289114 -16.75390625 137.44140625 C-12.16069549 140.62132139 -7.71883452 140.72727647 -2.31640625 140.12890625 C5.15075863 138.06299063 10.8128376 133.68623163 14.93359375 127.14453125 C18.89719829 119.62534029 19.97463446 112.58923455 19.80859375 104.19140625 C19.79957031 103.31677734 19.79054688 102.44214844 19.78125 101.54101562 C19.75788945 99.40352561 19.72202622 97.26617839 19.68359375 95.12890625 C6.17369464 95.12890625 -9.50037712 99.61962803 -19.31640625 109.12890625 Z " fill="#FFFFFF" transform="translate(1759.31640625,274.87109375)"/>
<path d="M0 0 C17.21023427 16.0094622 23.37307607 37.92886866 25.74169922 60.62817383 C25.74169922 66.89817383 25.74169922 73.16817383 25.74169922 79.62817383 C-8.90830078 79.62817383 -43.55830078 79.62817383 -79.25830078 79.62817383 C-77.58010149 95.64435725 -77.58010149 95.64435725 -69.25830078 108.62817383 C-61.9357131 113.47319425 -55.05489111 115.60247972 -46.25830078 114.62817383 C-39.1700957 112.85612256 -34.06847856 109.9466191 -30.25830078 103.62817383 C-28.08042501 99.08334626 -26.45132466 94.51809091 -25.25830078 89.62817383 C-20.79654429 89.89326305 -16.33488084 90.15985818 -11.87329102 90.42773438 C-10.36159585 90.51829824 -8.84987773 90.60847987 -7.33813477 90.69824219 C0.13472983 91.14219929 7.60666951 91.59819619 15.07373047 92.13208008 C16.07766846 92.20370361 17.08160645 92.27532715 18.1159668 92.34912109 C20.42006005 92.59399126 22.51770329 92.99439603 24.74169922 93.62817383 C20.06010608 113.47617806 8.60690346 132.96133315 -8.57080078 144.31567383 C-22.60754952 152.79178483 -36.11093089 156.20571942 -52.50830078 156.06567383 C-53.77955811 156.05665039 -55.05081543 156.04762695 -56.3605957 156.03833008 C-78.90788041 155.62453934 -97.15116694 148.37945204 -113.42626953 132.51489258 C-132.17538995 112.67781547 -137.0985179 87.74697749 -136.39013672 61.44067383 C-135.19668471 35.9803642 -124.44222005 14.86870787 -105.94580078 -2.55932617 C-76.14539399 -28.04381198 -28.79744413 -25.53863866 0 0 Z M-72.25830078 25.62817383 C-77.2117024 32.05653375 -77.396528 36.01044604 -78.25830078 44.62817383 C-61.75830078 44.62817383 -45.25830078 44.62817383 -28.25830078 44.62817383 C-29.42240477 32.62651357 -29.42240477 32.62651357 -35.86376953 22.96020508 C-46.72947843 14.48147113 -62.76777853 15.97223943 -72.25830078 25.62817383 Z " fill="#FFFFFF" transform="translate(1100.25830078125,295.371826171875)"/>
<path d="M0 0 C0.76957031 0.67675781 1.53914063 1.35351562 2.33203125 2.05078125 C19.90834424 18.42938978 25.28435588 42.87311725 27 66 C27 70.62 27 75.24 27 80 C-7.65 80 -42.3 80 -78 80 C-76.43913256 96.53159424 -76.43913256 96.53159424 -67.8125 109.4375 C-61.51676917 114.26878909 -53.75841143 115.73889633 -46 115 C-40.19561666 113.72005906 -34.85896764 111.72274819 -31 107 C-27.67520811 101.56027105 -25.71432555 96.12400167 -24 90 C-19.53824351 90.26508922 -15.07658006 90.53168435 -10.61499023 90.79956055 C-9.10329507 90.89012441 -7.59157695 90.98030604 -6.07983398 91.07006836 C-1.73410547 91.32824473 2.61095611 91.59492034 6.95550537 91.87225342 C8.91734514 91.99483546 10.87981154 92.10726082 12.84228516 92.21923828 C13.99390137 92.29255371 15.14551758 92.36586914 16.33203125 92.44140625 C17.33596924 92.50142822 18.33990723 92.5614502 19.37426758 92.62329102 C21.98870166 92.99837905 23.73627588 93.67252612 26 95 C17.53396044 118.09555159 6.6639452 137.87773809 -16.04296875 149.56640625 C-27.68108478 154.71669538 -39.28164034 156.52562354 -51.9375 156.375 C-53.16662109 156.36557373 -54.39574219 156.35614746 -55.66210938 156.34643555 C-79.02104299 155.95722336 -97.41873334 147.55132566 -113.90234375 131.1015625 C-132.83583856 110.75127556 -136.05025002 85.76101103 -135.1640625 59.19384766 C-134.07376628 37.96876554 -125.28308559 17.17308074 -110.11328125 2.12890625 C-78.97937766 -24.95286239 -31.7514258 -28.73261451 0 0 Z M-71.6875 26.75 C-75.93631581 32.7213087 -76.95651199 37.69558393 -78 45 C-61.17 45 -44.34 45 -27 45 C-28.16246915 34.53777768 -29.53089202 28.05628187 -37.8515625 21.375 C-48.83536147 14.34536866 -63.10396064 17.96684345 -71.6875 26.75 Z " fill="#FFFFFF" transform="translate(2109,295)"/>
<path d="M0 0 C55.44 0 110.88 0 168 0 C168 16.83 168 33.66 168 51 C150.18 51 132.36 51 114 51 C114 109.08 114 167.16 114 227 C94.53 227 75.06 227 55 227 C55 168.92 55 110.84 55 51 C36.85 51 18.7 51 0 51 C0 34.17 0 17.34 0 0 Z " fill="#FFFFFF" transform="translate(792,221)"/>
<path d="M0 0 C0 17.16 0 34.32 0 52 C11.55 52 23.1 52 35 52 C35 66.52 35 81.04 35 96 C23.45 96 11.9 96 0 96 C0.09081818 109.18375787 0.09081818 109.18375787 0.20898438 122.3671875 C0.26326404 127.74606672 0.31437579 133.12484272 0.34643555 138.50390625 C0.37249097 142.84182052 0.4129091 147.17938724 0.46318626 151.51708603 C0.47983986 153.16998844 0.49136353 154.82295095 0.49761391 156.47592545 C0.50727161 158.79567947 0.5353494 161.11454738 0.56762695 163.43408203 C0.57873001 164.75312531 0.58983307 166.07216858 0.60127258 167.43118286 C1.03254787 171.29132034 1.90910425 173.73910108 4 177 C7.42882941 178.14294314 10.24082838 178.20964472 13.85546875 178.31640625 C15.06614014 178.35451416 16.27681152 178.39262207 17.52416992 178.43188477 C19.06306885 178.47498779 20.60196777 178.51809082 22.1875 178.5625 C27.075625 178.706875 31.96375 178.85125 37 179 C37 192.86 37 206.72 37 221 C11.61400978 225.00831425 -15.88055459 229.34765583 -39 215 C-48.92194489 207.78067443 -52.4533808 196.17824717 -54.40884399 184.56567383 C-55.58414006 176.44189829 -55.36670922 168.25007857 -55.29296875 160.0625 C-55.2873568 158.20207058 -55.28309429 156.34163665 -55.28010559 154.48120117 C-55.26878245 149.64139035 -55.23942699 144.80186002 -55.20599365 139.9621582 C-55.17501871 135.00085237 -55.16154232 130.03950015 -55.14648438 125.078125 C-55.11454209 115.38527512 -55.06188048 105.69270502 -55 96 C-63.58 96 -72.16 96 -81 96 C-81 81.48 -81 66.96 -81 52 C-71.43 52 -61.86 52 -52 52 C-51.87625 49.03 -51.7525 46.06 -51.625 43 C-51.24399543 34.61116795 -50.68598812 26.24430956 -50 17.875 C-49.9170166 16.83859375 -49.8340332 15.8021875 -49.74853516 14.734375 C-49.62551025 13.28417969 -49.62551025 13.28417969 -49.5 11.8046875 C-49.4278125 10.94858887 -49.355625 10.09249023 -49.28125 9.21044922 C-49 7 -49 7 -48 4 C-13.44680851 0 -13.44680851 0 0 0 Z " fill="#FFFFFF" transform="translate(1928,227)"/>
<path d="M0 0 C17.12305346 14.38336491 25.62445727 36.03349888 28.1640625 57.82421875 C30.45581818 84.86302938 27.68178669 114.41058066 10.4765625 136.5078125 C9.16279279 138.04557742 7.8306205 139.56790153 6.4765625 141.0703125 C5.91195312 141.71613281 5.34734375 142.36195313 4.765625 143.02734375 C-5.85358878 154.46917268 -20.32629574 159.05716972 -35.5234375 160.0703125 C-50.24216844 160.21965701 -63.35378707 155.21447652 -73.99023438 144.96704102 C-77.84334889 141.14398898 -80.70477765 137.76807892 -83.5234375 133.0703125 C-83.8534375 158.4803125 -84.1834375 183.8903125 -84.5234375 210.0703125 C-93.1034375 210.0703125 -101.6834375 210.0703125 -110.5234375 210.0703125 C-110.5234375 138.1303125 -110.5234375 66.1903125 -110.5234375 -7.9296875 C-102.9334375 -7.9296875 -95.3434375 -7.9296875 -87.5234375 -7.9296875 C-86.50755772 -4.88204816 -86.32539344 -2.58249783 -86.20703125 0.61328125 C-86.16513672 1.68642578 -86.12324219 2.75957031 -86.08007812 3.86523438 C-86.04076172 4.98478516 -86.00144531 6.10433594 -85.9609375 7.2578125 C-85.91775391 8.38896484 -85.87457031 9.52011719 -85.83007812 10.68554688 C-85.72394651 13.48034604 -85.62189365 16.27523412 -85.5234375 19.0703125 C-85.05035156 18.30847656 -84.57726563 17.54664063 -84.08984375 16.76171875 C-75.53553437 3.40499006 -64.85976334 -7.77470614 -48.828125 -11.4921875 C-30.60089758 -13.90524834 -14.82713887 -11.33840031 0 0 Z M-74.59765625 27.3984375 C-80.05794102 34.97416728 -84.59447911 43.64936359 -84.70043945 53.10742188 C-84.71327469 54.10946655 -84.72610992 55.11151123 -84.73933411 56.1439209 C-84.74672104 57.22306763 -84.75410797 58.30221436 -84.76171875 59.4140625 C-84.7697905 60.53413696 -84.77786224 61.65421143 -84.78617859 62.80822754 C-84.8000088 65.18203184 -84.8107357 67.55585595 -84.81860352 69.9296875 C-84.83009159 72.34250772 -84.85049256 74.75530317 -84.88012695 77.16796875 C-84.92309472 80.66684119 -84.93901641 84.16495794 -84.94921875 87.6640625 C-84.96672684 88.72701538 -84.98423492 89.78996826 -85.00227356 90.88513184 C-84.96932747 102.45357563 -81.50391924 111.9095753 -74.5234375 121.0703125 C-73.4096875 122.6171875 -73.4096875 122.6171875 -72.2734375 124.1953125 C-64.503836 132.3180777 -54.98215121 138.0353894 -43.62573242 138.54101562 C-31.73505957 138.70672004 -23.19781606 135.19547529 -14.5234375 127.0703125 C0.77397385 111.34198815 0.89188952 88.14929485 0.69140625 67.625 C0.26032002 49.00528807 -4.68151871 30.87481268 -18.53125 17.640625 C-37.57184917 2.63215271 -60.16143214 10.61885838 -74.59765625 27.3984375 Z " fill="#FFFFFF" transform="translate(2534.5234375,292.9296875)"/>
<path d="M0 0 C18.97462238 14.98935687 28.09214589 34.92452242 31.58984375 58.49194336 C32.26038765 64.22708933 32.34024594 69.91835534 32.3125 75.6875 C32.30512817 77.51897583 32.30512817 77.51897583 32.29760742 79.38745117 C31.96012774 105.60529571 25.00138696 129.22515715 6 148 C5.08927734 148.92619141 5.08927734 148.92619141 4.16015625 149.87109375 C-6.97299476 160.35095473 -22.20196661 163.35920976 -37 163 C-51.32363799 161.46854185 -63.2071724 155.54251775 -73 145 C-75.31 142.03 -77.62 139.06 -80 136 C-80.33 161.41 -80.66 186.82 -81 213 C-89.25 213 -97.5 213 -106 213 C-106 141.06 -106 69.12 -106 -5 C-98.41 -5 -90.82 -5 -83 -5 C-82.67 4.24 -82.34 13.48 -82 23 C-79.69 19.37 -77.38 15.74 -75 12 C-57.56208093 -11.21047159 -24.07351099 -16.91185718 0 0 Z M-70.04296875 29.1953125 C-75.63226561 37.20552238 -81.05822467 46.82317727 -81.17700195 56.74584961 C-81.18983719 57.68460434 -81.20267242 58.62335907 -81.21589661 59.59056091 C-81.22328354 60.60094925 -81.23067047 61.61133759 -81.23828125 62.65234375 C-81.246353 63.7034584 -81.25442474 64.75457306 -81.26274109 65.83753967 C-81.27656999 68.06591144 -81.28729748 70.29430429 -81.29516602 72.52270508 C-81.30664054 74.78318565 -81.32701964 77.0436401 -81.35668945 79.30395508 C-81.60738664 98.41156275 -80.52235634 114.17607795 -66.75 128.75 C-57.68701493 137.38505323 -48.24893776 141.51793456 -35.75415039 141.57226562 C-25.80957806 141.27430091 -17.70315516 136.87555274 -10.4375 130.125 C1.94516899 116.36941249 4.37277055 98.05466045 4.31567383 80.24682617 C4.31251898 78.19981241 4.33605854 76.15425803 4.36132812 74.10742188 C4.45019861 55.61099276 0.53530757 37.21915486 -12 23 C-19.01443099 16.10055968 -27.79446143 12.82681163 -37.5625 12.5625 C-51.09568597 13.07439356 -61.29645666 18.8990111 -70.04296875 29.1953125 Z " fill="#FFFFFF" transform="translate(2707,290)"/>
<path d="M0 0 C1.29349365 0.00523682 2.5869873 0.01047363 3.91967773 0.01586914 C4.9496714 0.01799156 4.9496714 0.01799156 6.00047302 0.02015686 C8.20144949 0.0257706 10.40232557 0.03832532 12.60327148 0.05102539 C14.09220231 0.05603863 15.58113473 0.06060184 17.07006836 0.06469727 C20.72700223 0.07574446 24.38387707 0.09301826 28.04077148 0.11352539 C31.85247859 9.06544566 34.8222066 18.27774811 37.84545898 27.51586914 C38.40643191 29.22218922 38.96767648 30.92842001 39.5291748 32.63456726 C41.02046021 37.16872046 42.50773649 41.70417896 43.994133 46.23993683 C45.2307126 50.01162694 46.46969581 53.78252553 47.70871925 57.55341339 C54.48260051 78.16949781 61.24152947 98.79049747 67.9387207 119.43164062 C71.38122699 130.03831643 74.84971252 140.63632953 78.32983398 151.23071289 C78.56408459 151.94394337 78.79833519 152.65717384 79.0396843 153.39201736 C81.16436899 159.86105255 83.28923417 166.33002804 85.41741943 172.7979126 C93.98748451 198.84414613 93.98748451 198.84414613 97.66577148 210.39477539 C97.91367432 211.16744751 98.16157715 211.94011963 98.41699219 212.73620605 C100.04077148 217.87578152 100.04077148 217.87578152 100.04077148 220.11352539 C90.80077148 220.11352539 81.56077148 220.11352539 72.04077148 220.11352539 C68.71025479 212.12028533 65.59397312 204.25414754 62.83374023 196.07446289 C62.2783532 194.4423436 62.2783532 194.4423436 61.71174622 192.7772522 C60.93930128 190.50411461 60.16886688 188.23029288 59.40039062 185.95581055 C58.21894077 182.46092389 57.02971335 178.9687513 55.83959961 175.47680664 C55.08718858 173.25951406 54.33521912 171.04207157 53.58374023 168.82446289 C53.22757126 167.77874115 52.87140228 166.73301941 52.50444031 165.65560913 C52.01811882 164.21237778 52.01811882 164.21237778 51.52197266 162.73999023 C51.23505051 161.89238129 50.94812836 161.04477234 50.6525116 160.17147827 C50.04077148 158.11352539 50.04077148 158.11352539 50.04077148 156.11352539 C22.98077148 156.11352539 -4.07922852 156.11352539 -31.95922852 156.11352539 C-32.94922852 160.07352539 -33.93922852 164.03352539 -34.95922852 168.11352539 C-35.54049578 170.16508709 -36.13828228 172.21222714 -36.76855469 174.24926758 C-37.08866013 175.28944031 -37.40876556 176.32961304 -37.73857117 177.40130615 C-38.07306778 178.47680725 -38.40756439 179.55230835 -38.75219727 180.66040039 C-39.10308914 181.79761536 -39.45398102 182.93483032 -39.81550598 184.10650635 C-40.92291354 187.69311478 -42.0347404 191.2783348 -43.14672852 194.86352539 C-43.9041842 197.31395529 -44.66134836 199.76447533 -45.41821289 202.21508789 C-47.26131365 208.18245465 -49.11040099 214.14791849 -50.95922852 220.11352539 C-58.87922852 220.11352539 -66.79922852 220.11352539 -74.95922852 220.11352539 C-66.77454227 193.88347722 -58.25516993 167.76930225 -49.64672852 141.67602539 C-42.50074777 120.014659 -35.37662706 98.34925438 -28.45922852 76.61352539 C-23.25286329 60.2604657 -18.00188507 43.92287993 -12.6809082 27.60668945 C-11.91338397 25.25238809 -11.14693002 22.89773751 -10.3815918 20.54272461 C-9.32853483 17.30358646 -8.27147898 14.06578299 -7.21313477 10.82836914 C-6.89731949 9.85508163 -6.58150421 8.88179413 -6.25611877 7.87901306 C-5.96679977 6.99725906 -5.67748077 6.11550507 -5.37939453 5.20703125 C-5.0021096 4.05091591 -5.0021096 4.05091591 -4.61720276 2.8714447 C-3.52065373 -0.05822122 -3.32546146 0.12757525 0 0 Z M9.04077148 31.11352539 C-4.91200519 74.24481619 -4.91200519 74.24481619 -18.70922852 117.42602539 C-18.98471527 118.29250702 -19.26020203 119.15898865 -19.54403687 120.05172729 C-20.30388999 122.442897 -21.0616973 124.83470273 -21.81860352 127.22680664 C-22.14992027 128.26911942 -22.14992027 128.26911942 -22.4879303 129.33248901 C-23.52261907 132.16859338 -23.52261907 132.16859338 -23.95922852 135.11352539 C-1.51922852 135.11352539 20.92077148 135.11352539 44.04077148 135.11352539 C40.10106884 122.63780035 36.15125196 110.16566283 32.18206787 97.69934082 C31.38685562 95.20087997 30.59207638 92.70228519 29.7979126 90.20349121 C27.33635884 82.45916009 24.86898863 74.7167346 22.38990593 66.97799492 C21.25586941 63.43753557 20.12450045 59.89627331 18.99938965 56.35296631 C17.92714755 52.97664062 16.84766655 49.60271534 15.76267815 46.23046494 C15.16485765 44.36597392 14.57461353 42.49905909 13.98451233 40.6321106 C13.62578537 39.52189545 13.26705841 38.4116803 12.89746094 37.26782227 C12.58581497 36.29228394 12.27416901 35.31674561 11.95307922 34.31164551 C11.25268912 31.94670552 11.25268912 31.94670552 9.04077148 31.11352539 Z " fill="#FFFFFF" transform="translate(2297.959228515625,227.886474609375)"/>
<path d="M0 0 C17.82 0 35.64 0 54 0 C54 74.91 54 149.82 54 227 C35.85 227 17.7 227 -1 227 C-1.02202674 198.22595741 -1.04049808 169.45192116 -1.05106533 140.67787224 C-1.0523161 137.28435297 -1.05361042 133.8908337 -1.05493164 130.49731445 C-1.05519395 129.82169783 -1.05545626 129.1460812 -1.05572652 128.44999134 C-1.06008325 117.49636831 -1.06797081 106.54275051 -1.0771528 95.58913059 C-1.08648927 84.357933 -1.0919807 73.12673803 -1.09408849 61.89553636 C-1.09539603 55.58368856 -1.09848455 49.27185263 -1.10573006 42.96000862 C-1.11248635 37.0266126 -1.11461776 31.09323341 -1.11310768 25.15983391 C-1.11338419 22.97523787 -1.11539161 20.79064131 -1.11920547 18.60604858 C-1.12413662 15.63737412 -1.12300044 12.66876427 -1.12025452 9.7000885 C-1.12316736 8.82364703 -1.1260802 7.94720555 -1.12908131 7.04420525 C-1.11412121 1.11412121 -1.11412121 1.11412121 0 0 Z " fill="#FFFFFF" transform="translate(1601,221)"/>
<path d="M0 0 C3.63 0 7.26 0 11 0 C11 214.17 11 428.34 11 649 C7.37 649 3.74 649 0 649 C0 434.83 0 220.66 0 0 Z " fill="#FFFFFF" transform="translate(678,31)"/>
<path d="M0 0 C3.96 0 7.92 0 12 0 C17.61 13.53 23.22 27.06 29 41 C30.56324797 38.65512804 31.56413697 36.83913156 32.58813477 34.27880859 C32.88506729 33.54149506 33.18199982 32.80418152 33.4879303 32.04452515 C33.95990089 30.85846176 33.95990089 30.85846176 34.44140625 29.6484375 C34.76914536 28.83380035 35.09688446 28.01916321 35.43455505 27.17984009 C36.48042443 24.57950631 37.52186346 21.97743193 38.5625 19.375 C39.60700002 16.76554875 40.65249365 14.15651782 41.70115662 11.54873657 C42.35362104 9.92602577 43.00363585 8.30232755 43.65101624 6.67758179 C45.88754921 1.11245079 45.88754921 1.11245079 47 0 C50.96 0 54.92 0 59 0 C59 18.81 59 37.62 59 57 C56.03 57 53.06 57 50 57 C49.67 43.47 49.34 29.94 49 16 C46.56625 21.836875 44.1325 27.67375 41.625 33.6875 C40.86010254 35.52143311 40.09520508 37.35536621 39.30712891 39.24487305 C38.69691173 40.70880979 38.08672116 42.17275762 37.4765625 43.63671875 C37.00609497 44.76430603 37.00609497 44.76430603 36.52612305 45.91467285 C34.99070549 49.59955302 33.46935794 53.28810669 32 57 C30.02 57 28.04 57 26 57 C23.27326387 51.67189491 20.80038721 46.32419426 18.546875 40.78125 C18.27568848 40.12092773 18.00450195 39.46060547 17.72509766 38.78027344 C16.73005246 36.35488566 15.74032105 33.92732055 14.75 31.5 C11.40875 23.3325 11.40875 23.3325 8 15 C7.67 28.86 7.34 42.72 7 57 C4.69 57 2.38 57 0 57 C0 38.19 0 19.38 0 0 Z " fill="#808080" transform="translate(2791,229)"/>
<path d="M0 0 C11.88 0 23.76 0 36 0 C36 11.88 36 23.76 36 36 C24.12 36 12.24 36 0 36 C0 24.12 0 12.24 0 0 Z " fill="#FFFFFF" transform="translate(2163,412)"/>
<path d="M0 0 C14.19 0 28.38 0 43 0 C43 2.31 43 4.62 43 7 C37.39 7 31.78 7 26 7 C26 23.5 26 40 26 57 C23.03 57 20.06 57 17 57 C17 40.5 17 24 17 7 C11.39 7 5.78 7 0 7 C0 4.69 0 2.38 0 0 Z " fill="#808080" transform="translate(2740,229)"/>
</svg>
