<?xml version="1.0" encoding="UTF-8"?>
<svg version="1.1" xmlns="http://www.w3.org/2000/svg" width="2889" height="705">
<path d="M0 0 C3.32443519 1.10814506 3.62899402 1.53034418 5.41015625 4.34375 C5.84263672 5.01277344 6.27511719 5.68179687 6.72070312 6.37109375 C7.16349609 7.07363281 7.60628906 7.77617187 8.0625 8.5 C8.94502202 9.88809379 9.83155665 11.27364703 10.72265625 12.65625 C11.30672241 13.58147461 11.30672241 13.58147461 11.90258789 14.52539062 C12.94848163 16.16196449 12.94848163 16.16196449 15 17 C15 17.66 15 18.32 15 19 C15.66 19 16.32 19 17 19 C17.639375 19.680625 18.27875 20.36125 18.9375 21.0625 C28.52206673 30.92568785 42.56325205 36.16273917 55.6875 39.3125 C56.35152832 39.47194092 57.01555664 39.63138184 57.69970703 39.7956543 C67.43133055 41.94991967 77.33573187 42.15250124 87.2644043 42.20532227 C88.45519246 42.21535499 89.64598063 42.22538771 90.87285328 42.23572445 C94.68995597 42.26686098 98.50706913 42.29177712 102.32421875 42.31640625 C104.69584472 42.33483266 107.06746752 42.35367053 109.43908691 42.3729248 C118.18852058 42.44109341 126.93801464 42.50132438 135.6875 42.5625 C155.260625 42.706875 174.83375 42.85125 195 43 C195 92.83 195 142.66 195 194 C57.72 194 -79.56 194 -221 194 C-220.36132335 190.80661674 -219.77838704 188.092043 -218.74755859 185.07568359 C-218.49511383 184.3321463 -218.24266907 183.58860901 -217.98257446 182.82254028 C-217.70730927 182.02258636 -217.43204407 181.22263245 -217.1484375 180.3984375 C-216.85810638 179.54700165 -216.56777527 178.6955658 -216.26864624 177.81832886 C-215.30737202 175.00275449 -214.3412924 172.18885574 -213.375 169.375 C-212.69290142 167.3812302 -212.01093748 165.38741433 -211.32910156 163.39355469 C-206.56120384 149.46908814 -201.72196129 135.57005604 -196.84896851 121.68206787 C-192.79689985 110.12913037 -188.81869071 98.55274742 -184.90234375 86.953125 C-184.46475655 85.65797786 -184.027165 84.36283219 -183.58956909 83.06768799 C-181.85981774 77.94612882 -180.13065187 72.82439065 -178.41271973 67.69885254 C-177.22008571 64.1417856 -176.02246622 60.58642907 -174.82421875 57.03125 C-174.46657944 55.95836731 -174.10894012 54.88548462 -173.74046326 53.78009033 C-173.4080513 52.7962738 -173.07563934 51.81245728 -172.7331543 50.79882812 C-172.44530563 49.94035278 -172.15745697 49.08187744 -171.86088562 48.1973877 C-171 46 -171 46 -169 43 C-165.97758484 42.62818909 -165.97758484 42.62818909 -162.0378418 42.63110352 C-160.96146454 42.6254538 -160.96146454 42.6254538 -159.86334229 42.61968994 C-158.29901626 42.61324107 -156.73465107 42.61360283 -155.17032433 42.61987495 C-152.67316758 42.62900146 -150.17675979 42.61873469 -147.67964172 42.60325623 C-140.57721208 42.56326085 -133.474838 42.56191647 -126.37231445 42.56420898 C-98.42849732 42.77840493 -98.42849732 42.77840493 -71 38 C-69.28864868 37.56216187 -69.28864868 37.56216187 -67.54272461 37.11547852 C-64.696059 36.33299469 -61.91662076 35.45893222 -59.125 34.5 C-58.13870605 34.16379639 -57.15241211 33.82759277 -56.13623047 33.48120117 C-36.58484311 26.51941646 -18.20449679 15.88558234 -2.69140625 2.05859375 C-1.80324219 1.37925781 -0.91507813 0.69992187 0 0 Z " fill="#000000" transform="translate(356,405)"/>
<path d="M0 0 C50.16 0 100.32 0 152 0 C153.14057064 3.42171192 152.86513255 4.12764824 151.72753906 7.42260742 C151.42218735 8.32137604 151.11683563 9.22014465 150.80223083 10.14614868 C150.46015091 11.1227243 150.11807098 12.09929993 149.765625 13.10546875 C149.24241417 14.63317398 149.24241417 14.63317398 148.70863342 16.19174194 C147.56423308 19.52664579 146.40717577 22.85700988 145.25 26.1875 C144.45644571 28.49247169 143.66372473 30.79773043 142.87182617 33.10327148 C140.93153954 38.74656734 138.98179916 44.38653932 137.0289917 50.0255127 C135.64981525 54.0122726 134.2786084 58.00173601 132.91015625 61.9921875 C131.39368055 66.41276685 129.87577683 70.83284411 128.35395813 75.25158691 C118.36324179 104.26111833 108.51499403 133.31893388 98.68478394 162.38314819 C92.09048005 181.87990266 85.47971509 201.37091348 78.84082031 220.85253906 C78.20376466 222.72200133 77.56672041 224.59146748 76.9296875 226.4609375 C76.61439087 227.38620239 76.29909424 228.31146729 75.97424316 229.26477051 C72.31941746 239.99312511 68.67756942 250.72588429 65.034729 261.45831299 C58.76956243 279.91617099 52.49089759 298.36929551 46.18701172 316.81396484 C41.44183228 330.69890871 36.71201793 344.58905579 31.98599243 358.48052979 C28.39475439 369.03628078 24.80039547 379.59092802 21.19140625 390.140625 C20.88606964 391.03346191 20.58073303 391.92629883 20.2661438 392.84619141 C17.86677671 399.86195776 17.86677671 399.86195776 16.68591309 403.30834961 C13.81197832 411.69631883 10.95428923 420.08775791 8.19921875 428.515625 C7.98604507 429.16553406 7.7728714 429.81544312 7.55323792 430.48504639 C6.57980736 433.45412745 5.61402559 436.42522907 4.66235352 439.40136719 C4.33549561 440.40329102 4.0086377 441.40521484 3.671875 442.4375 C3.3944043 443.30246094 3.11693359 444.16742187 2.83105469 445.05859375 C2 447 2 447 0 448 C0 300.16 0 152.32 0 0 Z " fill="#000000" transform="translate(70,116)"/>
<path d="M0 0 C4.74949007 4.41619252 7.86638398 9.75835288 10.96875 15.40625 C11.39285156 14.76558594 11.81695313 14.12492187 12.25390625 13.46484375 C20.30074336 1.59796968 29.45013187 -6.51973566 43.71875 -10.03125 C59.49596739 -12.33317188 77.16712658 -11.41835251 90.73046875 -2.27734375 C91.46910156 -1.72175781 92.20773437 -1.16617187 92.96875 -0.59375 C93.75894531 -0.00722656 94.54914063 0.57929688 95.36328125 1.18359375 C105.87489846 9.70794005 109.21693006 20.33326711 110.96875 33.40625 C112.36275284 47.45632958 112.0974911 61.58682911 112.06640625 75.6875 C112.06453741 78.19811983 112.06311571 80.70874003 112.06211853 83.21936035 C112.05833001 89.77538081 112.0485317 96.33137855 112.03741455 102.88739014 C112.02465482 110.78134009 112.02078072 118.67530228 112.01496124 126.56925964 C112.00531744 138.51493882 111.98613537 150.4605683 111.96875 162.40625 C93.48875 162.40625 75.00875 162.40625 55.96875 162.40625 C55.91267578 150.093125 55.91267578 150.093125 55.85546875 137.53125 C55.82133617 131.66474463 55.78534491 125.7982737 55.74667263 119.93179893 C55.69684489 112.33557286 55.65137832 104.73940336 55.62231445 97.14306641 C55.59682099 90.48398003 55.55587647 83.82515143 55.50556374 77.16619873 C55.48889591 74.62736846 55.47738113 72.08849889 55.47113609 69.54962158 C55.4614945 65.98987076 55.43343276 62.43070113 55.40112305 58.87109375 C55.40255814 57.82452103 55.40399323 56.7779483 55.4054718 55.69966125 C55.32709854 49.58248665 54.58434182 44.96526398 51.96875 39.40625 C48.4876639 36.13613881 44.30246029 35.62911549 39.671875 35.26171875 C34.99792234 35.51162662 31.14415538 37.42963608 26.96875 39.40625 C25.97875 39.73625 24.98875 40.06625 23.96875 40.40625 C22.96886851 42.76113286 22.96886851 42.76113286 22.34375 45.59375 C22.10398437 46.53605469 21.86421875 47.47835937 21.6171875 48.44921875 C20.18982813 54.95832143 19.80324404 61.08302135 19.76342773 67.72607422 C19.75352814 68.75107529 19.74362854 69.77607635 19.73342896 70.83213806 C19.70192929 74.20838132 19.67710219 77.58463864 19.65234375 80.9609375 C19.63176427 83.30649168 19.61076753 85.65204224 19.58937073 87.99758911 C19.53425281 94.16244566 19.48479825 100.32733511 19.43652344 106.49224854 C19.37738683 113.89374377 19.31121552 121.29517906 19.24622345 128.69662476 C19.14834332 139.9331298 19.05939866 151.16967381 18.96875 162.40625 C0.81875 162.40625 -17.33125 162.40625 -36.03125 162.40625 C-36.08023437 155.1565625 -36.12921875 147.906875 -36.1796875 140.4375 C-36.21511583 135.81639316 -36.25109981 131.19530377 -36.2890625 126.57421875 C-36.34912981 119.25604894 -36.40725435 111.93790327 -36.453125 104.61962891 C-36.4902791 98.71267869 -36.5367165 92.80586477 -36.58931351 86.89903259 C-36.60769876 84.65708329 -36.62286373 82.41510496 -36.63459396 80.17311096 C-35.31325895 57.17156927 -35.31325895 57.17156927 -44.03125 37.40625 C-49.90187472 34.70576263 -55.82035028 35.13967679 -62.03125 36.40625 C-66.99611969 38.66300895 -68.9900952 41.45970792 -71.26953125 46.2109375 C-73.38841 52.3176547 -73.19941212 58.62045297 -73.23657227 65.00146484 C-73.24647186 66.05572662 -73.25637146 67.1099884 -73.26657104 68.19619751 C-73.2980781 71.66983824 -73.32290077 75.14349264 -73.34765625 78.6171875 C-73.36823509 81.03000233 -73.38923181 83.44281363 -73.41062927 85.85562134 C-73.46575379 92.19802995 -73.51520546 98.54047059 -73.56347656 104.88293457 C-73.62260709 112.49718214 -73.68878206 120.11137134 -73.75377655 127.72557068 C-73.85166499 139.2857614 -73.94060398 150.84599 -74.03125 162.40625 C-91.85125 162.40625 -109.67125 162.40625 -128.03125 162.40625 C-128.03125 106.30625 -128.03125 50.20625 -128.03125 -7.59375 C-110.87125 -7.59375 -93.71125 -7.59375 -76.03125 -7.59375 C-75.53625 1.81125 -75.53625 1.81125 -75.03125 11.40625 C-73.71125 8.76625 -72.39125 6.12625 -71.03125 3.40625 C-54.14604899 -16.35234086 -19.37965861 -15.20557829 0 0 Z " fill="#000000" transform="translate(1278.03125,285.59375)"/>
<path d="M0 0 C38.94 0 77.88 0 118 0 C117.30302125 4.87885124 116.66213606 8.49878075 115.12084961 13.015625 C114.53679855 14.74207497 114.53679855 14.74207497 113.94094849 16.50340271 C113.51570892 17.73977982 113.09046936 18.97615692 112.65234375 20.25 C112.2040426 21.56773428 111.75629125 22.88565571 111.30905151 24.20375061 C110.1084568 27.73718954 108.90036452 31.26802239 107.69086075 34.79841995 C106.42374717 38.50136303 105.16375425 42.20672733 103.90307617 45.91186523 C101.87818912 51.86030881 99.84950822 57.80744338 97.81738281 63.75341797 C95.42207521 70.76207613 93.03293236 77.7728109 90.6484375 84.78515625 C88.74133541 90.39287465 86.83406394 96.00053126 84.9230957 101.60693359 C80.90083834 113.40753114 76.89090258 125.21225352 72.88946533 137.01992798 C70.81918296 143.12890437 68.7476926 149.23746262 66.67236328 155.34472656 C66.27825256 156.50453033 65.88414185 157.66433411 65.47808838 158.85928345 C64.70613414 161.13093032 63.93412198 163.40255752 63.16204834 165.67416382 C61.26694935 171.2539571 59.38047703 176.83639594 57.51385498 182.42578125 C56.81770052 184.50812215 56.11752048 186.5890547 55.41552734 188.66943359 C54.6407766 190.96780946 53.87318394 193.26862224 53.11572266 195.57275391 C49.49041187 206.2594482 44.24584088 215.37326011 37 224 C36.42894531 224.71671875 35.85789062 225.4334375 35.26953125 226.171875 C21.72361493 242.46163365 0.7476501 255.24283776 -20.41282654 257.79379272 C-26.18867836 258.25414944 -31.99096931 258.12010105 -37.78125 258.09765625 C-39.20471141 258.09578803 -40.62817346 258.09436603 -42.05163574 258.09336853 C-45.77353737 258.08957518 -49.49539913 258.07977257 -53.21728516 258.06866455 C-57.02505962 258.05838152 -60.83284061 258.05385623 -64.640625 258.04882812 C-72.09376805 258.03814702 -79.54687841 258.02110946 -87 258 C-85.14600481 251.00851814 -83.14090528 244.09646576 -80.890625 237.22265625 C-80.60072693 236.33122421 -80.31082886 235.43979218 -80.012146 234.52134705 C-79.40162776 232.64622044 -78.78981701 230.7715142 -78.17675781 228.8972168 C-77.26267109 226.10125765 -76.35367435 223.30368292 -75.4453125 220.50585938 C-72.29211709 210.82183845 -69.04680771 201.17732978 -65.66015625 191.57246399 C-62.10734773 181.49318524 -58.68317332 171.37051653 -55.25 161.25 C-54.51244502 159.07809945 -53.77481276 156.90622515 -53.03710938 154.734375 C-50.69006169 147.82337272 -48.34492057 140.91172426 -46 134 C-45.21159639 131.67642963 -44.42318494 129.35286192 -43.63476562 127.02929688 C-40.85806086 118.84580348 -38.08165229 110.66220962 -35.30535889 102.47857666 C-10.72912524 30.03576112 -10.72912524 30.03576112 -4.5 12 C-4.14405762 10.96762207 -3.78811523 9.93524414 -3.42138672 8.87158203 C-3.1070166 7.96520996 -2.79264648 7.05883789 -2.46875 6.125 C-2.07333008 4.98417969 -2.07333008 4.98417969 -1.66992188 3.8203125 C-1 2 -1 2 0 0 Z " fill="#000000" transform="translate(299,116)"/>
<path d="M0 0 C19.14 0 38.28 0 58 0 C58 84.81 58 169.62 58 257 C-46.92376682 257 -46.92376682 257 -59.9296875 245.2578125 C-67.25927224 237.67656819 -70.49634471 227.92526025 -71.25 217.5625 C-70.99346901 204.72994977 -66.34550349 192.46505249 -62.04806519 180.54660034 C-60.34699467 175.82758474 -58.68009185 171.09646489 -57.0078125 166.3671875 C-56.66932785 165.41289352 -56.3308432 164.45859955 -55.98210144 163.47538757 C-52.68693895 154.16687387 -49.54027217 144.81162481 -46.4375 135.4375 C-46.08487595 134.37349472 -46.08487595 134.37349472 -45.72512817 133.28799438 C-44.59887352 129.88885696 -43.47464981 126.48905229 -42.3515625 123.08886719 C-37.98215997 109.86517228 -33.53684489 96.66933137 -29.0223999 83.4944458 C-24.931014 71.5519845 -20.84186829 59.60952559 -16.875 47.625 C-13.76128802 38.23046152 -10.5890874 28.85625537 -7.39093018 19.49017334 C-6.84120567 17.87923309 -6.29248986 16.26794825 -5.74481201 14.65631104 C-4.97992711 12.40658419 -4.21120803 10.15820463 -3.44140625 7.91015625 C-3.09356331 6.88395424 -3.09356331 6.88395424 -2.73869324 5.83702087 C-1.11436095 1.11436095 -1.11436095 1.11436095 0 0 Z " fill="#000000" transform="translate(493,116)"/>
<path d="M0 0 C18.74613854 15.21259467 26.82425821 36.30336504 29.42382812 59.81054688 C29.71555761 65.37651087 29.76449374 70.92557607 29.73632812 76.49804688 C29.73450531 77.24689148 29.7326825 77.99573608 29.73080444 78.76727295 C29.68467836 90.02654464 29.20919517 100.85924431 26.42382812 111.81054688 C26.16641846 112.83220947 26.16641846 112.83220947 25.90380859 113.87451172 C22.17677205 128.22643348 16.08565485 140.29731704 5.42382812 150.81054688 C4.78703125 151.45765625 4.15023438 152.10476563 3.49414062 152.77148438 C-7.26190832 162.99196242 -21.30598555 166.8048111 -35.88867188 167.12304688 C-45.91296424 166.78845768 -55.24929808 164.70306139 -63.57617188 158.81054688 C-65.55617188 156.17054688 -67.53617188 153.53054688 -69.57617188 150.81054688 C-69.90617187 172.92054688 -70.23617188 195.03054688 -70.57617188 217.81054688 C-88.39617187 217.81054688 -106.21617188 217.81054688 -124.57617188 217.81054688 C-124.57617188 143.56054688 -124.57617188 69.31054688 -124.57617188 -7.18945312 C-107.74617188 -7.18945312 -90.91617187 -7.18945312 -73.57617188 -7.18945312 C-73.08117188 2.21554687 -73.08117188 2.21554687 -72.57617188 11.81054688 C-71.25617188 9.17054688 -69.93617187 6.53054688 -68.57617188 3.81054688 C-63.07039703 -3.68114179 -54.29409335 -8.24459653 -45.24023438 -9.90820312 C-29.41981276 -11.57839426 -13.08496569 -9.87452801 0 0 Z M-62.38867188 35.43554688 C-67.90328187 40.56630931 -70.31752404 47.93295587 -70.70988464 55.33210754 C-70.71369644 56.22064926 -70.71750824 57.10919098 -70.72143555 58.0246582 C-70.7278154 59.03953812 -70.73419525 60.05441803 -70.74076843 61.10005188 C-70.74188126 62.18658554 -70.74299408 63.2731192 -70.74414062 64.39257812 C-70.74746902 65.52072433 -70.75079742 66.64887054 -70.75422668 67.811203 C-70.75928416 70.19582716 -70.76163537 72.58045838 -70.76147461 74.96508789 C-70.76365758 78.59924082 -70.78181645 82.23308838 -70.80078125 85.8671875 C-70.80371617 88.18815001 -70.80570031 90.50911395 -70.80664062 92.83007812 C-70.81382614 93.91053909 -70.82101166 94.99100006 -70.82841492 96.10420227 C-70.80255605 104.71367981 -70.14872304 111.84485792 -64.57617188 118.81054688 C-59.69153066 123.48281239 -55.79473227 125.52317541 -49.07617188 126.12304688 C-43.17035083 125.59574142 -39.8640995 123.36516985 -35.88867188 119.12304688 C-26.80938421 108.08391297 -27.2194513 92.72891592 -27.26049805 79.07250977 C-27.26366391 76.87856513 -27.24007087 74.68596752 -27.21484375 72.4921875 C-27.15330062 58.86401623 -28.28837697 43.90809677 -37.82617188 33.31054688 C-46.64965942 28.49773549 -54.41999901 29.35284989 -62.38867188 35.43554688 Z " fill="#000000" transform="translate(1546.576171875,285.189453125)"/>
<path d="M0 0 C11.0662391 10.11523418 15.40491392 21.65878085 16.11688232 36.42396927 C16.29385716 42.2894857 16.32131589 48.15571157 16.33552551 54.02356148 C16.34392507 57.38649985 16.36453255 60.74918066 16.38806152 64.11204529 C16.43597559 71.26215775 16.46906133 78.4122966 16.5 85.5625 C16.53593317 93.83565809 16.57827962 102.10868968 16.63594055 110.38172722 C16.65567357 113.65819518 16.66426061 116.93456056 16.67224121 120.21107483 C16.68524418 122.27035875 16.69876881 124.32963946 16.71289062 126.38891602 C16.71190872 127.26906372 16.71092682 128.14921143 16.70991516 129.05603027 C16.80155879 138.84583492 18.0119868 148.11986796 19 158 C1.51 158 -15.98 158 -34 158 C-35.58658354 153.24024937 -36.54450442 149.0354216 -37.125 144.125 C-37.21136719 143.43664062 -37.29773437 142.74828125 -37.38671875 142.0390625 C-37.59659566 140.36004725 -37.79907087 138.68010952 -38 137 C-38.40089844 137.71285156 -38.80179688 138.42570313 -39.21484375 139.16015625 C-46.09845302 150.7577111 -54.08832658 156.19633096 -67 160 C-85.55207569 164.21538288 -104.23280686 162.34874604 -120.5625 152.3125 C-130.28235534 145.54422377 -137.54768924 135.50820451 -139.71875 123.734375 C-141.43975976 107.00233564 -139.43861438 92.02516284 -128.9609375 78.3359375 C-109.20471449 55.22883568 -76.4878754 52.36362285 -48 50 C-44.98647358 49.90008202 -42.01672236 49.95134319 -39 50 C-39.22997874 47.62153567 -39.48321491 45.24938734 -39.75 42.875 C-39.8428125 41.87726563 -39.8428125 41.87726563 -39.9375 40.859375 C-40.62110365 35.048744 -42.66886745 31.04857103 -47.0625 27.1875 C-53.12219096 23.47349586 -61.70981953 24.26588749 -68.48828125 25.42578125 C-73.7573024 27.09345202 -77.22095034 30.26410472 -80 35 C-81.58442085 38.93644931 -82.85954361 42.91448271 -84 47 C-92.35915035 47.19130394 -100.58265308 46.53838981 -108.89624023 45.77319336 C-111.19278455 45.56201406 -113.48985761 45.35762164 -115.78710938 45.15429688 C-117.26826464 45.02122758 -118.74938573 44.88777725 -120.23046875 44.75390625 C-120.9066777 44.6934462 -121.58288666 44.63298615 -122.27958679 44.57069397 C-126.54571746 44.17570827 -130.76494197 43.63627056 -135 43 C-134.69124062 30.81803902 -130.41446444 19.60691361 -123 10 C-122.2575 8.96875 -121.515 7.9375 -120.75 6.875 C-94.00192155 -21.0889002 -30.44352433 -24.40238747 0 0 Z M-77 93 C-81.73391011 99.22882909 -82.80679443 104.32977124 -82 112 C-80.66049798 116.4930725 -78.75547179 119.33037728 -75.25 122.4375 C-68.60576925 125.63184171 -63.30501763 125.47468346 -56.45703125 123.12890625 C-48.3615424 119.40935732 -44.11792165 113.12931799 -41 105 C-38.12349326 96.98794981 -38.81483621 88.38380475 -39 80 C-51.3183577 80 -67.85053309 84.53187637 -77 93 Z " fill="#000000" transform="translate(1818,290)"/>
<path d="M0 0 C8.10533867 6.49299939 14.08689676 13.49453171 19.16015625 22.5703125 C19.61132812 23.364375 20.0625 24.1584375 20.52734375 24.9765625 C29.48260421 42.553347 31.16015625 64.16251262 31.16015625 83.5703125 C-3.48984375 83.5703125 -38.13984375 83.5703125 -73.83984375 83.5703125 C-72.99871788 99.68149959 -72.99871788 99.68149959 -64.40234375 112.1328125 C-58.10896603 117.39735978 -51.40013398 118.95763922 -43.31640625 118.39453125 C-37.00616826 117.43343346 -32.20402835 115.30384903 -27.83984375 110.5703125 C-24.37647104 105.22103201 -22.50814678 99.69493849 -20.83984375 93.5703125 C-4.13847709 94.16635721 12.50124 95.24829847 29.16015625 96.5703125 C28.61256604 101.99005155 27.27053742 106.36821336 25.03515625 111.3203125 C24.72239746 112.01914551 24.40963867 112.71797852 24.08740234 113.43798828 C19.31951245 123.8365291 13.16425977 132.40258165 5.16015625 140.5703125 C4.49628906 141.27027344 3.83242187 141.97023438 3.1484375 142.69140625 C-6.58506575 152.20242943 -19.56658256 157.4258859 -32.83984375 159.5703125 C-34.11859375 159.7971875 -35.39734375 160.0240625 -36.71484375 160.2578125 C-58.05806484 162.41007009 -82.15142619 159.0249748 -99.38671875 145.34228516 C-117.41064 130.32420969 -128.84242821 110.91791136 -131.83984375 87.5703125 C-132.12802045 83.00379373 -132.17419943 78.45751779 -132.15234375 73.8828125 C-132.1467041 72.64692383 -132.14106445 71.41103516 -132.13525391 70.13769531 C-131.81695999 46.13014044 -124.56459529 24.24879894 -107.91015625 6.58203125 C-78.92492651 -21.5828618 -32.18584433 -24.80165291 0 0 Z M-67.15234375 29.6953125 C-72.08950612 35.65094648 -73.83984375 40.88814631 -73.83984375 48.5703125 C-57.33984375 48.5703125 -40.83984375 48.5703125 -23.83984375 48.5703125 C-24.95107861 38.56919879 -26.08382429 32.17672278 -33.9609375 25.76171875 C-44.42517936 19.12638867 -58.74034144 20.97907864 -67.15234375 29.6953125 Z " fill="#000000" transform="translate(1095.83984375,291.4296875)"/>
<path d="M0 0 C16.48476123 13.97368336 23.78765109 32.56185688 27.1875 53.5 C27.31543945 54.25240967 27.44337891 55.00481934 27.57519531 55.7800293 C28.87148092 64.59203281 28.4375 72.64307438 28.4375 81.8125 C-6.2125 81.8125 -40.8625 81.8125 -76.5625 81.8125 C-74.91428497 97.8056732 -74.91428497 97.8056732 -66.5625 110.8125 C-58.91797198 115.60053179 -52.39848585 117.6013702 -43.5 116.125 C-37.25387737 114.65926877 -32.53955397 112.67301564 -28.8125 107.1875 C-26.56022326 103.25342452 -25.28813573 99.18628723 -24.140625 94.81640625 C-23.5625 92.8125 -23.5625 92.8125 -22.5625 91.8125 C-19.44618969 91.85281048 -16.36095877 91.96371695 -13.25 92.125 C-11.81503174 92.19448853 -11.81503174 92.19448853 -10.35107422 92.26538086 C2.25802949 92.90898935 14.84848101 93.86188931 27.4375 94.8125 C26.18035561 101.41415352 24.28876072 107.07927289 21.375 113.125 C20.78054077 114.36503784 20.78054077 114.36503784 20.17407227 115.63012695 C16.67380191 122.71428716 12.62473709 128.82002394 7.4375 134.8125 C6.82648437 135.534375 6.21546875 136.25625 5.5859375 137 C-7.83131483 151.61624083 -26.75685427 158.0102696 -46.1796875 158.99609375 C-69.54666828 159.40902376 -89.9103865 153.64989934 -107.89453125 138.390625 C-124.4800066 122.36366492 -134.09654519 99.83614937 -134.5625 76.8125 C-134.56637994 59.08893768 -132.56952836 41.84904838 -124.5625 25.8125 C-124.08296875 24.84183594 -123.6034375 23.87117188 -123.109375 22.87109375 C-113.81415698 5.56664662 -97.63636623 -8.66939168 -78.71484375 -14.41015625 C-50.56406391 -22.36071913 -23.32049551 -18.17055275 0 0 Z M-69.875 27.75 C-73.78233355 32.73484336 -76.5625 40.45806595 -76.5625 46.8125 C-59.7325 46.8125 -42.9025 46.8125 -25.5625 46.8125 C-27.62523009 33.89643008 -27.62523009 33.89643008 -35.0625 24.4375 C-45.54625364 17.62306013 -60.96408011 18.88319358 -69.875 27.75 Z " fill="#000000" transform="translate(2107.5625,293.1875)"/>
<path d="M0 0 C21.88720949 -0.02254518 43.77440963 -0.0409781 65.66162777 -0.05181217 C75.823495 -0.0569756 85.98535452 -0.06401917 96.1472168 -0.07543945 C105.00093626 -0.08538488 113.85465014 -0.09185309 122.70837504 -0.09408849 C127.39937535 -0.09539584 132.09035969 -0.09848321 136.7813549 -0.10573006 C141.19139252 -0.11248805 145.60140751 -0.11461742 150.01144981 -0.11310768 C151.63487623 -0.11338411 153.25830336 -0.11539054 154.88172531 -0.11920547 C157.0884505 -0.12413928 159.29508883 -0.12299947 161.5018158 -0.12025452 C162.73978377 -0.12117631 163.97775175 -0.1220981 165.25323391 -0.12304783 C168 0 168 0 169 1 C169.09326716 2.56547048 169.11745582 4.13512772 169.11352539 5.70336914 C169.11340454 6.71838501 169.11328369 7.73340088 169.11315918 8.7791748 C169.10804321 9.85364868 169.10292725 10.92812256 169.09765625 12.03515625 C169.09664917 13.01705933 169.09564209 13.9989624 169.09460449 15.01062012 C169.08935445 18.69459188 169.07539332 22.37854706 169.0625 26.0625 C169.041875 34.291875 169.02125 42.52125 169 51 C150.85 51 132.7 51 114 51 C114 109.08 114 167.16 114 227 C94.2 227 74.4 227 54 227 C54 168.92 54 110.84 54 51 C36.18 51 18.36 51 0 51 C0 34.17 0 17.34 0 0 Z " fill="#000000" transform="translate(792,221)"/>
<path d="M0 0 C0 16.83 0 33.66 0 51 C11.55 51 23.1 51 35 51 C35 65.85 35 80.7 35 96 C23.45 96 11.9 96 0 96 C0.12002597 108.77941069 0.12002597 108.77941069 0.2578125 121.55859375 C0.31799197 126.77486434 0.37614382 131.99109965 0.421875 137.20751953 C0.45889835 141.41569991 0.50530333 145.6236841 0.55806351 149.83169556 C0.57651726 151.43271423 0.59165807 153.03377481 0.60334396 154.63485718 C0.62036203 156.88698176 0.64943192 159.1386658 0.68115234 161.390625 C0.69447601 162.66969727 0.70779968 163.94876953 0.7215271 165.26660156 C1.03104522 169.41621343 1.88713162 172.99804006 3 177 C7.26241969 177.79320525 11.37923686 178.17731495 15.7109375 178.31640625 C16.83290527 178.35451416 17.95487305 178.39262207 19.11083984 178.43188477 C20.5180127 178.47498779 21.92518555 178.51809082 23.375 178.5625 C27.87125 178.706875 32.3675 178.85125 37 179 C37 192.86 37 206.72 37 221 C11.19463262 225.55388836 -16.36371677 229.57501718 -39.78125 214.6796875 C-48.50104622 208.07843332 -52.55348438 196.77445877 -54.5793457 186.3442688 C-55.55175329 178.61347329 -55.23956249 170.7705572 -55.1953125 162.9921875 C-55.19157679 161.05591987 -55.18873246 159.11965033 -55.18673706 157.18338013 C-55.1791445 152.1166857 -55.15953414 147.05010812 -55.1373291 141.98345947 C-55.11677582 136.80148905 -55.10771516 131.61949954 -55.09765625 126.4375 C-55.07628366 116.29160739 -55.04113774 106.14583174 -55 96 C-63.58 96 -72.16 96 -81 96 C-81 81.15 -81 66.3 -81 51 C-71.43 51 -61.86 51 -52 51 C-52 47.37 -52 43.74 -52 40 C-51.81891058 37.00576344 -51.61184522 34.03597375 -51.34375 31.05078125 C-51.27716187 30.26728806 -51.21057373 29.48379486 -51.14196777 28.67655945 C-50.93232547 26.22147558 -50.7162965 23.76700559 -50.5 21.3125 C-50.35504168 19.62829191 -50.21050717 17.94404729 -50.06640625 16.25976562 C-49.71581908 12.17273975 -49.35951097 8.08625017 -49 4 C-46.43364152 3.14454717 -44.62248471 2.80243613 -41.97509766 2.61108398 C-41.17061188 2.55109726 -40.3661261 2.49111053 -39.53726196 2.42930603 C-38.23877823 2.33861595 -38.23877823 2.33861595 -36.9140625 2.24609375 C-36.02012787 2.18092056 -35.12619324 2.11574738 -34.20516968 2.04859924 C-32.31399517 1.91150636 -30.42268342 1.77629553 -28.53125 1.64282227 C-25.64289765 1.43876444 -22.75503314 1.22867363 -19.8671875 1.01757812 C-18.02867155 0.88505939 -16.19013063 0.75288656 -14.3515625 0.62109375 C-13.48995514 0.55860947 -12.62834778 0.49612518 -11.7406311 0.43174744 C-10.929841 0.37491287 -10.1190509 0.31807831 -9.28369141 0.25952148 C-8.57548248 0.20924301 -7.86727356 0.15896454 -7.13760376 0.10716248 C-4.76111881 -0.01197561 -2.37946939 0 0 0 Z " fill="#000000" transform="translate(1928,227)"/>
<path d="M0 0 C16.75358206 13.76808215 24.68329854 35.43598596 27.6953125 56.29296875 C28.57760576 74.20047952 29.35768435 93.08757582 23.6953125 110.29296875 C23.47568848 110.96650391 23.25606445 111.64003906 23.02978516 112.33398438 C17.06390949 129.94872839 6.42499721 145.5080841 -10.3046875 154.29296875 C-24.85007912 161.33320396 -40.94643729 162.59776827 -56.3046875 157.29296875 C-68.99432056 152.29287453 -76.21006717 144.42307171 -84.3046875 133.29296875 C-84.6346875 158.70296875 -84.9646875 184.11296875 -85.3046875 210.29296875 C-93.8846875 210.29296875 -102.4646875 210.29296875 -111.3046875 210.29296875 C-111.3046875 138.35296875 -111.3046875 66.41296875 -111.3046875 -7.70703125 C-103.3846875 -7.70703125 -95.4646875 -7.70703125 -87.3046875 -7.70703125 C-86.9746875 1.20296875 -86.6446875 10.11296875 -86.3046875 19.29296875 C-84.6340625 16.63234375 -84.6340625 16.63234375 -82.9296875 13.91796875 C-74.36133844 1.14826752 -63.5199239 -8.06062115 -48.3046875 -11.70703125 C-30.62390997 -14.89084473 -14.33368219 -10.61664257 0 0 Z M-67.3046875 20.29296875 C-68.31982422 21.19015625 -68.31982422 21.19015625 -69.35546875 22.10546875 C-78.81305821 30.93967661 -84.9670625 42.43667081 -85.68847656 55.44335938 C-85.85928156 60.46621166 -85.86682364 65.48458188 -85.82617188 70.50976562 C-85.80477957 73.65443473 -85.82602062 76.7968077 -85.8515625 79.94140625 C-85.87601641 97.00104391 -84.0414935 111.62804433 -72.05078125 124.76171875 C-62.40775495 134.04874248 -52.03555885 138.72596884 -38.75 138.5625 C-27.80916051 137.70658399 -19.53132162 132.06977489 -12.30078125 124.078125 C1.54062954 106.11119652 1.73502766 78.89776927 -0.8046875 57.359375 C-3.02431119 42.12254823 -8.62982523 25.96145951 -21.3046875 16.29296875 C-36.67861291 7.75435694 -53.84985967 7.89960922 -67.3046875 20.29296875 Z " fill="#000000" transform="translate(2711.3046875,292.70703125)"/>
<path d="M0 0 C17.61689378 15.10364693 27.12845485 37.04191906 29 60 C30.21825471 89.74002458 27.78556262 118.85250686 7.5078125 142.4296875 C-4.44021464 154.67548479 -18.8418083 160.86244851 -35.8125 161.3125 C-52.03334362 161.0134172 -63.66583965 155.5156845 -75.4921875 144.66015625 C-78 142 -78 142 -83 135 C-83.33 160.08 -83.66 185.16 -84 211 C-92.58 211 -101.16 211 -110 211 C-110 139.06 -110 67.12 -110 -7 C-102.08 -7 -94.16 -7 -86 -7 C-85.67 1.91 -85.34 10.82 -85 20 C-82.69 16.37 -80.38 12.74 -78 9 C-69.07289984 -2.45363794 -57.51705666 -9.4872623 -43.109375 -11.74609375 C-27.44884669 -13.02490574 -12.54910234 -9.78065015 0 0 Z M-72.8203125 26.9375 C-78.55044852 34.98844379 -84.05669574 44.69545037 -84.17700195 54.74584961 C-84.18983719 55.68460434 -84.20267242 56.62335907 -84.21589661 57.59056091 C-84.22328354 58.60094925 -84.23067047 59.61133759 -84.23828125 60.65234375 C-84.246353 61.7034584 -84.25442474 62.75457306 -84.26274109 63.83753967 C-84.27656999 66.06591144 -84.28729748 68.29430429 -84.29516602 70.52270508 C-84.30664054 72.78318565 -84.32701964 75.0436401 -84.35668945 77.30395508 C-84.60192902 95.99559438 -83.70426875 111.90058837 -70.25 126.25 C-65.94676086 130.31508278 -61.24247644 133.2857501 -56 136 C-55.36578125 136.34160156 -54.7315625 136.68320312 -54.078125 137.03515625 C-46.33786226 140.59104618 -36.5076843 140.28234807 -28.625 137.375 C-17.49502265 132.15554984 -8.75389747 123.39827168 -4.02734375 112.01953125 C-0.95079046 102.97703812 0.60102914 93.52694061 1 84 C1.02723145 83.36642578 1.05446289 82.73285156 1.08251953 82.08007812 C1.8696508 60.83248428 -0.5539191 38.6088339 -15 22 C-22.15533783 14.36657723 -30.92756846 11.18310902 -41.25 10.75 C-53.92123756 10.96224854 -64.73193193 17.49625862 -72.8203125 26.9375 Z " fill="#000000" transform="translate(2534,292)"/>
<path d="M0 0 C10.89 0 21.78 0 33 0 C60.25703946 82.68833752 60.25703946 82.68833752 68.97607422 109.55297852 C73.37115954 123.09160168 77.80600106 136.61707885 82.24520016 150.14128399 C85.81031074 161.00293174 89.3700915 171.86632655 92.92871094 182.73010254 C93.9077216 185.71833847 94.88740714 188.70635232 95.8671875 191.69433594 C97.12132071 195.52080077 98.3711828 199.34862396 99.61608887 203.17810059 C100.22844942 205.05881279 100.84510403 206.93812518 101.46191406 208.81738281 C101.98350098 210.42758301 101.98350098 210.42758301 102.515625 212.0703125 C102.95310059 213.41246826 102.95310059 213.41246826 103.39941406 214.78173828 C104 217 104 217 104 220 C94.43 220 84.86 220 75 220 C69.75911558 204.89680502 69.75911558 204.89680502 67.53515625 198.46289062 C66.01682465 194.07044147 64.49748407 189.6783595 62.97216797 185.28833008 C61.74267869 181.74952027 60.51768932 178.20918259 59.29582214 174.66773415 C58.828551 173.31597153 58.35965316 171.96477011 57.88911438 170.61414146 C57.2310347 168.72430997 56.57923702 166.83229448 55.92773438 164.94018555 C55.55467163 163.86318893 55.18160889 162.78619232 54.79724121 161.67655945 C54 159 54 159 54 156 C26.94 156 -0.12 156 -28 156 C-28.66 159.3 -29.32 162.6 -30 166 C-30.52362566 167.96901255 -31.07830244 169.93035698 -31.67993164 171.87695312 C-32.15536156 173.42775574 -32.15536156 173.42775574 -32.64039612 175.0098877 C-32.97691696 176.08943726 -33.31343781 177.16898682 -33.66015625 178.28125 C-34.0100914 179.41655151 -34.36002655 180.55185303 -34.7205658 181.72155762 C-35.45535742 184.10219679 -36.19249903 186.4821118 -36.93188477 188.86132812 C-38.06726171 192.51532468 -39.19536331 196.17150695 -40.32226562 199.828125 C-41.03864334 202.14596293 -41.7554257 204.46367583 -42.47265625 206.78125 C-42.81120132 207.87699341 -43.1497464 208.97273682 -43.49855042 210.10168457 C-43.81235153 211.11033569 -44.12615265 212.11898682 -44.44946289 213.15820312 C-44.72544815 214.04737427 -45.00143341 214.93654541 -45.28578186 215.85266113 C-46 218 -46 218 -47 220 C-54.92 220 -62.84 220 -71 220 C-66.90608819 205.61621462 -62.25881411 191.4294956 -57.56552124 177.23269653 C-55.19233478 170.05346661 -52.82997545 162.87067121 -50.46875 155.6875 C-50.23169027 154.96651186 -49.99463055 154.24552372 -49.75038719 153.50268745 C-45.49147571 140.54512673 -41.31816933 127.56152343 -37.1875 114.5625 C-29.6049774 90.70846644 -21.77905333 66.93545909 -13.9338913 43.1668005 C-12.92067262 40.09664191 -11.90826462 37.02621622 -10.89587021 33.95578575 C-10.20398833 31.8589237 -9.51064169 29.76255041 -8.81716919 27.66621399 C-5.7817513 18.47297969 -2.86923929 9.24657821 0 0 Z M13 32 C10.1717769 40.70390558 7.34556747 49.40846205 4.52163887 58.1137619 C3.20902209 62.15995952 1.8958188 66.20596441 0.58105469 70.25146484 C-6.41909342 91.79258593 -13.28062983 113.36932033 -20 135 C2.11 135 24.22 135 47 135 C45.77402023 129.48309102 44.6079113 124.43871566 42.88037109 119.1328125 C42.67835083 118.50841278 42.47633057 117.88401306 42.26818848 117.24069214 C41.60716295 115.20084075 40.94032887 113.16294037 40.2734375 111.125 C39.80183709 109.67329998 39.3306233 108.22147432 38.85977173 106.76953125 C37.62034927 102.95083819 36.37606812 99.13374645 35.13061523 95.3170166 C33.64873379 90.77297917 32.17221537 86.22719714 30.69537735 81.68151855 C29.49543461 77.98849267 28.29410799 74.29593218 27.08929443 70.60449219 C24.88269692 63.83808964 22.69756921 57.06679073 20.57519531 50.2734375 C20.02310898 48.51386719 20.02310898 48.51386719 19.45986938 46.71875 C18.78041008 44.54632019 18.10717824 42.3719293 17.44125366 40.1953125 C17.14562531 39.25171875 16.84999695 38.308125 16.54541016 37.3359375 C16.29312653 36.51657715 16.0408429 35.6972168 15.78091431 34.85302734 C15.15503127 32.80645295 15.15503127 32.80645295 13 32 Z " fill="#000000" transform="translate(2294,228)"/>
<path d="M0 0 C18.15 0 36.3 0 55 0 C55 74.91 55 149.82 55 227 C36.85 227 18.7 227 0 227 C0 152.09 0 77.18 0 0 Z " fill="#000000" transform="translate(1600,221)"/>
<path d="M0 0 C1.50046875 0.00386719 1.50046875 0.00386719 3.03125 0.0078125 C4.0315625 0.00523438 5.031875 0.00265625 6.0625 0 C8.53125 0.1328125 8.53125 0.1328125 9.53125 1.1328125 C9.62864131 2.55611059 9.65647956 3.98422903 9.65659916 5.41085529 C9.66035444 6.80712341 9.66035444 6.80712341 9.66418558 8.23159897 C9.66184442 9.26830196 9.65950325 10.30500494 9.65709114 11.37312317 C9.65854458 12.46804356 9.65999802 13.56296396 9.66149551 14.69106376 C9.66518414 18.40969727 9.66165593 22.12829052 9.65823364 25.84692383 C9.65938433 28.51994606 9.66093019 31.19296539 9.66296089 33.86598682 C9.66658542 39.70326971 9.66645516 45.54054337 9.66391373 51.37782669 C9.66014483 60.05780113 9.66205788 68.73776772 9.66512203 77.4177421 C9.67039927 92.91651251 9.66992682 108.4152788 9.66704312 123.9140496 C9.66453187 137.47693072 9.66386885 151.03981034 9.66506577 164.60269165 C9.66514215 165.5008305 9.66521854 166.39896935 9.66529724 167.32432453 C9.66560855 170.96976383 9.66592695 174.61520313 9.666257 178.26064243 C9.66931899 212.48805032 9.66653779 246.71545558 9.6611601 280.94286306 C9.65641417 311.38085543 9.65683878 341.81884361 9.66162109 372.25683594 C9.66697068 406.41990441 9.66910188 440.58297056 9.66600883 474.74603939 C9.66568809 478.38500404 9.66537525 482.0239687 9.66506577 485.66293335 C9.66498669 486.55900094 9.66490761 487.45506853 9.66482614 488.37828968 C9.66368658 501.93575699 9.66502282 515.49322262 9.66754532 529.0506897 C9.67039789 544.45941126 9.66970407 559.86812806 9.66426457 575.27684903 C9.66131768 583.91050379 9.66115183 592.54414824 9.66491075 601.17780275 C9.66714141 606.93399619 9.66577896 612.69018131 9.66140598 618.44637352 C9.65901129 621.7332178 9.65878706 625.02003716 9.66181196 628.30688155 C9.66481247 631.835442 9.66177509 635.36394451 9.65709114 638.89250183 C9.65943231 639.92920482 9.66177347 640.9659078 9.66418558 642.03402603 C9.66168207 642.96487144 9.65917855 643.89571686 9.65659916 644.85476971 C9.6565314 645.66299354 9.65646365 646.47121738 9.65639383 647.30393285 C9.53125 649.1328125 9.53125 649.1328125 8.53125 650.1328125 C6.70009117 650.23132421 4.86505067 650.26253879 3.03125 650.2578125 C2.0309375 650.26039063 1.030625 650.26296875 0 650.265625 C-2.46875 650.1328125 -2.46875 650.1328125 -3.46875 649.1328125 C-3.56614131 647.70951441 -3.59397956 646.28139597 -3.59409916 644.85476971 C-3.59660268 643.92392429 -3.5991062 642.99307888 -3.60168558 642.03402603 C-3.59934442 640.99732304 -3.59700325 639.96062006 -3.59459114 638.89250183 C-3.59604458 637.79758144 -3.59749802 636.70266104 -3.59899551 635.57456124 C-3.60268414 631.85592773 -3.59915593 628.13733448 -3.59573364 624.41870117 C-3.59688433 621.74567894 -3.59843019 619.07265961 -3.60046089 616.39963818 C-3.60408542 610.56235529 -3.60395516 604.72508163 -3.60141373 598.88779831 C-3.59764483 590.20782387 -3.59955788 581.52785728 -3.60262203 572.8478829 C-3.60789927 557.34911249 -3.60742682 541.8503462 -3.60454312 526.3515754 C-3.60203187 512.78869428 -3.60136885 499.22581466 -3.60256577 485.66293335 C-3.60268034 484.31572508 -3.60268034 484.31572508 -3.60279724 482.94130047 C-3.60310855 479.29586117 -3.60342695 475.65042187 -3.603757 472.00498257 C-3.60681899 437.77757468 -3.60403779 403.55016942 -3.5986601 369.32276194 C-3.59391417 338.88476957 -3.59433878 308.44678139 -3.59912109 278.00878906 C-3.60447068 243.84572059 -3.60660188 209.68265444 -3.60350883 175.51958561 C-3.60318809 171.88062096 -3.60287525 168.2416563 -3.60256577 164.60269165 C-3.60248669 163.70662406 -3.60240761 162.81055647 -3.60232614 161.88733532 C-3.60118658 148.32986801 -3.60252282 134.77240238 -3.60504532 121.2149353 C-3.60789789 105.80621374 -3.60720407 90.39749694 -3.60176457 74.98877597 C-3.59881768 66.35512121 -3.59865183 57.72147676 -3.60241075 49.08782225 C-3.60464141 43.33162881 -3.60327896 37.57544369 -3.59890598 31.81925148 C-3.59651129 28.5324072 -3.59628706 25.24558784 -3.59931196 21.95874345 C-3.60231247 18.430183 -3.59927509 14.90168049 -3.59459114 11.37312317 C-3.59693231 10.33642018 -3.59927347 9.2997172 -3.60168558 8.23159897 C-3.59918207 7.30075356 -3.59667855 6.36990814 -3.59409916 5.41085529 C-3.5940314 4.60263146 -3.59396365 3.79440762 -3.59389383 2.96169215 C-3.39722378 0.08751255 -2.88311657 0.15510437 0 0 Z " fill="#000000" transform="translate(680.46875,29.8671875)"/>
<path d="M0 0 C4.29 0 8.58 0 13 0 C17.20028774 7.9015314 20.41762983 16.208204 23.75 24.5 C24.35777206 26.00532984 24.96584244 27.51053927 25.57421875 29.015625 C27.05292488 32.67570309 28.52757509 36.33739076 30 40 C34.00439072 32.45661991 37.06001591 24.55771841 40.1875 16.625 C41.00535599 14.55906545 41.82420958 12.49353145 42.64387512 10.42831421 C43.38053954 8.57093418 44.11453582 6.71249658 44.84838867 4.85400391 C46 2 46 2 47 0 C51.29 0 55.58 0 60 0 C60 18.81 60 37.62 60 57 C57.03 57 54.06 57 51 57 C50.67 43.8 50.34 30.6 50 17 C47.15375 23.868125 47.15375 23.868125 44.25 30.875 C43.65993164 32.29796387 43.06986328 33.72092773 42.46191406 35.18701172 C41.98463867 36.33959473 41.50736328 37.49217773 41.015625 38.6796875 C40.75759094 39.30245575 40.49955688 39.925224 40.23370361 40.56686401 C38.35675501 45.10756882 36.53322933 49.66718215 34.75292969 54.24658203 C34 56 34 56 33 57 C30.66702567 57.04092937 28.33294775 57.04241723 26 57 C23.88071714 51.9285466 21.76283102 46.85651309 19.64624023 41.78393555 C18.92592161 40.05818907 18.20522077 38.33260208 17.48413086 36.60717773 C16.4480511 34.12785954 15.41334472 31.6479721 14.37890625 29.16796875 C14.05596085 28.39599655 13.73301544 27.62402435 13.40028381 26.82865906 C12.18217788 23.90538867 11.00185454 21.00556362 10 18 C9.67 30.87 9.34 43.74 9 57 C6.03 57 3.06 57 0 57 C0 38.19 0 19.38 0 0 Z " fill="#808080" transform="translate(2790,229)"/>
<path d="M0 0 C8.8790625 -0.0309375 8.8790625 -0.0309375 17.9375 -0.0625 C19.80784912 -0.071604 21.67819824 -0.08070801 23.60522461 -0.09008789 C25.07926359 -0.09300709 26.55330337 -0.09555564 28.02734375 -0.09765625 C28.79953247 -0.10277222 29.57172119 -0.10788818 30.36730957 -0.11315918 C32.24525187 -0.11346974 34.12309253 -0.06233569 36 0 C37 1 37 1 37.11352539 4.41821289 C37.11327433 5.93636987 37.10771425 7.45453257 37.09765625 8.97265625 C37.09664917 9.67934448 37.09564209 10.38603271 37.09460449 11.11413574 C37.08935745 13.76360691 37.07539629 16.41305502 37.0625 19.0625 C37.041875 24.981875 37.02125 30.90125 37 37 C24.79 37 12.58 37 0 37 C0 24.79 0 12.58 0 0 Z " fill="#000000" transform="translate(2163,411)"/>
<path d="M0 0 C14.52 0 29.04 0 44 0 C44 2.31 44 4.62 44 7 C38.39 7 32.78 7 27 7 C27 23.5 27 40 27 57 C23.7 57 20.4 57 17 57 C17 40.5 17 24 17 7 C11.39 7 5.78 7 0 7 C0 4.69 0 2.38 0 0 Z " fill="#808080" transform="translate(2740,229)"/>
</svg>
